{
  "asset": {
    "version": "2.0",
    "generator": "THREE.GLTFExporter"
  },
  "scenes": [
    {
      "nodes": [
        0
      ]
    }
  ],
  "scene": 0,
  "nodes": [
    {
      "children": [
        6
      ],
      "matrix": [
        0.01,
        0,
        0,
        0,
        0,
        0.01,
        0,
        0,
        0,
        0,
        0.01,
        0,
        0,
        0,
        0,
        1
      ]
    },
    {
      "matrix": [
        1,
        0,
        0,
        0,
        0,
        1,
        0,
        0,
        0,
        0,
        1,
        0,
        1948.4999999999998,
        226.94040786744586,
        -4.545377105839382,
        1
      ],
      "name": "Image",
      "mesh": 0
    },
    {
      "matrix": [
        1,
        0,
        0,
        0,
        0,
        1,
        0,
        0,
        0,
        0,
        1,
        0,
        1948.5,
        216.5,
        -2,
        1
      ],
      "name": "case",
      "mesh": 1
    },
    {
      "matrix": [
        0.6938614269338939,
        0.1362215849755857,
        -0.7071067811865475,
        0,
        -0.1926464129604323,
        0.981268240377461,
        0,
        0,
        0.6938614269338937,
        0.13622158497558567,
        0.7071067811865476,
        0,
        0,
        0,
        0,
        1
      ],
      "name": "Directional Light",
      "extensions": {
        "KHR_lights_punctual": {
          "light": 0
        }
      }
    },
    {
      "matrix": [
        0.9907496137787302,
        -1.4858777461906891e-8,
        0.1357026263463487,
        0,
        0.010227850843809417,
        0.9971556757731914,
        -0.07467227959843395,
        0,
        -0.13531664296905146,
        0.07536947839350944,
        0.9879316008015315,
        0,
        1884.1431327139067,
        271.951520756821,
        553.832459103756,
        1
      ],
      "camera": 0
    },
    {
      "matrix": [
        1,
        0,
        0,
        0,
        0,
        1,
        0,
        0,
        0,
        0,
        1,
        0,
        0,
        1,
        0,
        1
      ],
      "name": "Default Ambient Light"
    },
    {
      "name": "Scene 1",
      "children": [
        1,
        2,
        3,
        4,
        5
      ]
    }
  ],
  "bufferViews": [
    {
      "buffer": 0,
      "byteOffset": 0,
      "byteLength": 288,
      "target": 34962,
      "byteStride": 12
    },
    {
      "buffer": 0,
      "byteOffset": 288,
      "byteLength": 288,
      "target": 34962,
      "byteStride": 12
    },
    {
      "buffer": 0,
      "byteOffset": 576,
      "byteLength": 192,
      "target": 34962,
      "byteStride": 8
    },
    {
      "buffer": 0,
      "byteOffset": 768,
      "byteLength": 144,
      "target": 34963
    },
    {
      "buffer": 0,
      "byteOffset": 912,
      "byteLength": 7776,
      "target": 34962,
      "byteStride": 12
    },
    {
      "buffer": 0,
      "byteOffset": 8688,
      "byteLength": 7776,
      "target": 34962,
      "byteStride": 12
    },
    {
      "buffer": 0,
      "byteOffset": 16464,
      "byteLength": 3216,
      "target": 34963
    }
  ],
  "buffers": [
    {
      "byteLength": 19680,
      "uri": "data:application/octet-stream;base64,"
    }
  ],
  "accessors": [
    {
      "bufferView": 0,
      "componentType": 5126,
      "count": 24,
      "max": [
        200,
        200,
        1
      ],
      "min": [
        -200,
        -200,
        0
      ],
      "type": "VEC3"
    },
    {
      "bufferView": 1,
      "componentType": 5126,
      "count": 24,
      "max": [
        1,
        1,
        1
      ],
      "min": [
        -1,
        -1,
        -1
      ],
      "type": "VEC3"
    },
    {
      "bufferView": 2,
      "componentType": 5126,
      "count": 24,
      "max": [
        1,
        1
      ],
      "min": [
        0,
        0
      ],
      "type": "VEC2"
    },
    {
      "bufferView": 3,
      "componentType": 5125,
      "count": 36,
      "max": [
        23
      ],
      "min": [
        0
      ],
      "type": "SCALAR"
    },
    {
      "bufferView": 4,
      "componentType": 5126,
      "count": 648,
      "max": [
        220,
        210,
        6
      ],
      "min": [
        -220,
        -210,
        -6
      ],
      "type": "VEC3"
    },
    {
      "bufferView": 5,
      "componentType": 5126,
      "count": 648,
      "max": [
        1,
        1,
        0.9866808652877808
      ],
      "min": [
        -1,
        -0.9902694225311279,
        -1
      ],
      "type": "VEC3"
    },
    {
      "bufferView": 6,
      "componentType": 5125,
      "count": 804,
      "max": [
        647
      ],
      "min": [
        0
      ],
      "type": "SCALAR"
    }
  ],
  "meshes": [
    {
      "primitives": [
        {
          "mode": 4,
          "attributes": {
            "POSITION": 0,
            "NORMAL": 1,
            "TEXCOORD_0": 2
          },
          "extras": {
            "shape": {
              "points": [
                -200,
                200,
                -200,
                200,
                -200,
                200,
                0,
                200,
                200,
                200,
                200,
                200,
                200,
                0,
                200,
                -200,
                200,
                -200,
                200,
                -200,
                0,
                -200,
                -200,
                -200,
                -200,
                -200,
                -200,
                0
              ],
              "shapeHoles": [],
              "isClosed": true,
              "roundness": 0
            },
            "parameters": {
              "width": 400,
              "depth": 1,
              "cornerRadius": [
                0,
                0,
                0,
                0
              ],
              "cornerType": 0,
              "extrudeBevelSize": 0,
              "extrudeBevelSegments": 1,
              "height": 400,
              "type": "RectangleGeometry"
            },
            "ui": {
              "enabledIndieCorners": false
            },
            "type": "RectangleGeometry",
            "booleanOperationDidFail": false
          },
          "indices": 3
        }
      ]
    },
    {
      "primitives": [
        {
          "mode": 4,
          "attributes": {
            "POSITION": 4,
            "NORMAL": 5
          },
          "extras": {
            "type": "SubdivGeometry",
            "parameters": {
              "width": 440,
              "height": 420,
              "depth": 12
            }
          },
          "indices": 6
        }
      ]
    }
  ],
  "extensions": {
    "KHR_lights_punctual": {
      "lights": [
        {
          "name": "Directional Light",
          "color": [
            1,
            1,
            1
          ],
          "intensity": 0.7,
          "type": "directional"
        }
      ]
    }
  },
  "cameras": [
    {
      "type": "orthographic",
      "orthographic": {
        "xmag": 6.202023493975903,
        "ymag": 3.2172996875,
        "zfar": 100000,
        "znear": 0
      }
    }
  ],
  "extensionsUsed": [
    "KHR_lights_punctual"
  ]
}